<svg xmlns="http://www.w3.org/2000/svg" width="126" height="23" viewBox="0 0 2524.75 400" class="sc-94e36389-0 dAgwbd">
    <path d="M48.94 37.29A56.8 56.8 0 0 0 .55 101.4l33.52 239.93L175.15 19.64Z" fill="#97d700"/>
    <path d="M388.22 236.48 375.07 52.6a56.62 56.62 0 0 0-64.32-52l-54.14 7.52L375.85 276a56.6 56.6 0 0 0 12.37-39.52Z" fill="#71c5e8"/>
    <path d="M85.43 399.65a56.38 56.38 0 0 0 28.37-4.16l205.36-86.84-97.63-219.34Z" fill="#ff9013"/>
    <path d="M586.15 66.67h70.93l99.23 266.66h-63.57l-18.6-54.65h-107l-18.61 54.65h-61.61Zm-3.1 164.73h75.2l-36.44-109.31h-1.55Zm462.83-164.73H1106v266.66h-60.08Zm105.41 0h195v49.22h-134.93v74.81h108.54v48.06h-108.54v94.57h-60.07Zm324.96 165.5-100-165.5h68.22l62.4 109.69h1.55l65.5-109.69h64l-101.2 165.11v101.55h-60.47ZM919.06 66.67H786.31v266.66h60.08v-84.49h72.67a91.09 91.09 0 1 0 0-182.17Zm-6.66 135.27h-66v-88.37h66a44.19 44.19 0 0 1 0 88.37Zm822.87-135.27h69.36c88 0 132.77 56.69 132.77 130.91v3.35c0 73.85-42.51 132.4-133.51 132.4h-68.62Zm67.87 249.51c75.71 0 112.63-47.74 112.63-115.62v-3c0-65.64-34.68-113.75-113-113.75h-46.62v232.37Zm163.72-78.7v-3c0-58.55 42.14-99.21 94.36-99.21 52.58 0 94 39.54 94 98.84v3c0 58.93-41.77 99.21-94.36 99.21-52.97 0-94-41.4-94-98.84Zm167.83 0v-3c0-51.47-32.08-82.42-73.47-82.42-41.77 0-73.85 31.7-73.85 82.42v3c0 50 31.33 82 73.85 82 41.78.05 73.47-31.65 73.47-82Zm46.65.38v-3c0-59.67 41.77-99.58 93.23-99.58 39.54 0 76.09 20.89 81.31 64.9h-19.4c-4.84-32.82-31.32-48.11-61.91-48.11-40.65 0-72.72 31.32-72.72 82.79v3c0 51.46 31.7 81.67 72.72 81.67 32.45 0 60-18.65 64.9-53.7h18.27c-5.22 41.77-38.78 70.49-83.17 70.49-52.57 0-93.23-39.16-93.23-98.46Zm199.82 37.29h19c3.36 26.48 19.77 44.76 55.94 44.76 32.82 0 49.61-14.92 49.61-38.42 0-25-14.55-32.82-51.1-39.53-47.74-8.58-67.13-20.89-67.13-54.45 0-33.2 31.33-52.22 64.15-52.22 35.06 0 62.65 14.55 67.88 53h-19c-4.85-25-20.89-36.17-49.23-36.17-27.23 0-45.5 13.8-45.5 34.68 0 22.38 13.42 30.58 53.33 37.67 41.77 7.46 65.64 17.53 65.64 55.57 0 32.82-24.24 56.69-68.63 56.69-45.87-.04-72.35-24.28-74.96-61.58Z" fill="#fff"/>
</svg>
