<svg width="220" height="40" viewBox="0 0 220 40" fill="none" xmlns="http://www.w3.org/2000/svg">
<g clip-path="url(#clip0_37_28667)">
<path d="M4.90388 3.72451C3.41171 3.93135 2.06278 4.72234 1.1537 5.92354C0.244617 7.12475 -0.150184 8.63783 0.0561099 10.1301V10.1301L3.41703 34.1265L17.5554 1.95981L4.90388 3.72451Z" fill="#97D700"/>
<path d="M39.0186 23.7186L37.6973 5.27045C37.5861 3.77011 36.8851 2.3749 35.7479 1.38998C34.6106 0.405061 33.1296 -0.0893947 31.6288 0.0147632C31.5018 0.0196161 31.3754 0.0334451 31.2504 0.0561466L25.7937 0.809915L37.7801 27.6825C38.6792 26.5653 39.1217 25.1489 39.0186 23.7186V23.7186Z" fill="#71C5E8"/>
<path d="M8.57227 39.9645C9.53997 40.0742 10.5196 39.9316 11.4159 39.5507L31.9982 30.8661L22.2022 8.92404L8.57227 39.9645Z" fill="#FF9013"/>
<path d="M56.0627 7.81259H62.5658L71.6465 32.1844H65.8232L64.1206 27.1948H54.3246L52.616 32.1844H46.9761L56.0627 7.81259ZM55.7671 22.8673H62.6663L59.332 12.8761H59.1901L55.7671 22.8673Z" fill="white"/>
<path d="M97.7476 7.81259H103.252V32.1844H97.7476V7.81259Z" fill="white"/>
<path d="M107.402 7.81259H125.253V12.3116H112.918V19.1487H122.855V23.5353H112.918V32.1785H107.402V7.81259Z" fill="white"/>
<path d="M136.539 22.9382L127.375 7.81259H133.609L139.323 17.8392H139.465L145.463 7.81259H151.345L142.078 22.9027V32.1844H136.539V22.9382Z" fill="white"/>
<path d="M85.9297 7.81259H73.7748V32.1844H79.2758V24.4605H85.9297C88.1373 24.4605 90.2546 23.5835 91.8156 22.0225C93.3767 20.4615 94.2537 18.3442 94.2537 16.1366C94.2537 13.9289 93.3767 11.8117 91.8156 10.2506C90.2546 8.68958 88.1373 7.81259 85.9297 7.81259ZM85.3208 20.1744H79.2758V12.0987H85.3208C86.3917 12.0987 87.4187 12.5241 88.1759 13.2814C88.9332 14.0386 89.3586 15.0657 89.3586 16.1366C89.3586 17.2075 88.9332 18.2345 88.1759 18.9917C87.4187 19.749 86.3917 20.1744 85.3208 20.1744Z" fill="white"/>
<path d="M156.036 25.3148H157.878C158.28 28.3328 159.947 30.9104 164.948 30.9104C168.699 30.9104 171.156 28.7348 171.156 25.7848C171.156 22.4357 169.548 21.2622 164.724 20.5262C159.486 19.7547 156.961 18.0136 156.961 14.227C156.961 10.5084 160.009 7.96039 164.499 7.96039C168.989 7.96039 171.67 10.1714 172.205 13.9905H170.497C169.926 11.0109 168.052 9.5034 164.499 9.5034C160.816 9.5034 158.702 11.2119 158.702 14.094C158.702 16.7071 160.009 18.1141 165.001 18.8501C170.364 19.6542 172.941 21.1617 172.941 25.6488C172.941 29.4354 169.761 32.4475 164.936 32.4475C159.03 32.4534 156.539 29.2374 156.036 25.3148Z" fill="white"/>
<path d="M177.881 8.22937H184.112C192.019 8.22937 196.039 13.3225 196.039 19.9882V20.2838C196.039 26.9169 192.22 32.1785 184.044 32.1785H177.881V8.22937ZM183.979 30.6444C190.777 30.6444 194.097 26.3553 194.097 20.2572V19.9882C194.097 14.094 190.978 9.76942 183.943 9.76942H179.755V30.6444H183.979Z" fill="white"/>
<path d="M200.863 8.22939H202.74V20.0237L214.366 8.19983H216.509L204.919 19.8877L217.08 32.1845H214.8L202.74 20.1005V32.1963H200.863V8.22939Z" fill="white"/>
</g>
<defs>
<clipPath id="clip0_37_28667">
<rect width="219.048" height="40" fill="white"/>
</clipPath>
</defs>
</svg>
