<svg width="16" height="16" viewBox="0 0 16 16" fill="#1672EB" xmlns="http://www.w3.org/2000/svg">
<path d="M15.9917 7.97552C15.9911 7.74852 15.9424 7.52422 15.8489 7.31739C15.7553 7.11055 15.6191 6.92588 15.449 6.77552L7.99633 0.216184C7.80382 0.0585898 7.55764 -0.0181116 7.30968 0.00224426C7.06173 0.0226001 6.83136 0.138423 6.66712 0.325304C6.50289 0.512185 6.41762 0.755526 6.42929 1.00404C6.44095 1.25256 6.54865 1.48684 6.72966 1.65752L12.4877 6.72418C12.5129 6.74659 12.5308 6.77613 12.5389 6.80891C12.547 6.84168 12.5449 6.87614 12.533 6.90773C12.521 6.93931 12.4998 6.96652 12.4721 6.98577C12.4443 7.00502 12.4114 7.01539 12.3777 7.01552H0.968331C0.713724 7.01552 0.469544 7.11666 0.289509 7.2967C0.109474 7.47673 0.0083313 7.72091 0.0083313 7.97552C0.0083313 8.23013 0.109474 8.47431 0.289509 8.65434C0.469544 8.83438 0.713724 8.93552 0.968331 8.93552H12.3757C12.4094 8.93584 12.4423 8.94636 12.4699 8.9657C12.4976 8.98503 12.5188 9.01227 12.5306 9.04385C12.5425 9.07543 12.5446 9.10987 12.5366 9.14265C12.5286 9.17543 12.5108 9.20501 12.4857 9.22752L6.72766 14.2942C6.62696 14.3755 6.54375 14.4764 6.48304 14.5907C6.42232 14.705 6.38535 14.8305 6.37435 14.9594C6.36335 15.0884 6.37855 15.2183 6.41903 15.3412C6.45951 15.4642 6.52444 15.5777 6.60991 15.6749C6.69539 15.7721 6.79964 15.851 6.9164 15.9069C7.03315 15.9628 7.16001 15.9945 7.28933 16.0001C7.41866 16.0057 7.54778 15.9851 7.66894 15.9395C7.79009 15.8939 7.90077 15.8243 7.99433 15.7349L15.4483 9.17552C15.6186 9.02527 15.755 8.84064 15.8487 8.63379C15.9423 8.42694 15.9911 8.20258 15.9917 7.97552Z" fill="#6f9dff"/>
</svg>
