<svg width="61" height="60" viewBox="0 0 61 60" fill="none" xmlns="http://www.w3.org/2000/svg">
<g clip-path="url(#clip0_1_21725)">
<path d="M21.125 26.31C23.6886 28.6458 27.0319 29.9404 30.5 29.9404C33.9681 29.9404 37.3114 28.6458 39.875 26.31" stroke="#008A27" stroke-width="3.75" stroke-linecap="round" stroke-linejoin="round"/>
<path d="M24.875 15V18.75" stroke="#008A27" stroke-width="3.75" stroke-linecap="round" stroke-linejoin="round"/>
<path d="M36.125 15V18.75" stroke="#008A27" stroke-width="3.75" stroke-linecap="round" stroke-linejoin="round"/>
<path d="M53 37.5V9.375C53 8.38044 52.6049 7.42661 51.9016 6.72335C51.1984 6.02009 50.2446 5.625 49.25 5.625H11.75C10.7554 5.625 9.80161 6.02009 9.09835 6.72335C8.39509 7.42661 8 8.38044 8 9.375V37.5H53Z" stroke="#585E76" stroke-width="3.75" stroke-linecap="round" stroke-linejoin="round"/>
<path d="M58.3025 49.1025C58.5562 49.6735 58.6631 50.2988 58.6137 50.9216C58.5643 51.5444 58.3601 52.145 58.0195 52.6689C57.679 53.1927 57.213 53.6231 56.6638 53.9211C56.1147 54.2191 55.4998 54.3751 54.875 54.375H6.12499C5.50021 54.3751 4.8853 54.2191 4.33615 53.9211C3.78699 53.6231 3.32098 53.1927 2.98045 52.6689C2.63993 52.145 2.43568 51.5444 2.38626 50.9216C2.33684 50.2988 2.44383 49.6735 2.69749 49.1025L7.99999 37.5H53L58.3025 49.1025Z" stroke="#1672EB" stroke-width="3.75" stroke-linecap="round" stroke-linejoin="round"/>
<path d="M26.75 46.875H34.25" stroke="#1672EB" stroke-width="3.75" stroke-linecap="round" stroke-linejoin="round"/>
</g>
<defs>
<clipPath id="clip0_1_21725">
<rect width="60" height="60" fill="white" transform="translate(0.5)"/>
</clipPath>
</defs>
</svg>
