<svg width="24" height="24" fill="none" xmlns="http://www.w3.org/2000/svg">
    <path d="m23.85 21.426-1.78-2.91a.48.48 0 0 1-.07-.26v-4.13c0-1.78-1.71-3.07-3.52-4.45a.511.511 0 0 1-.2-.36.53.53 0 0 1 .14-.4 4.93 4.93 0 0 0 1.07-5.88 5.08 5.08 0 0 0-8.08-1.29l-1.06 1a.48.48 0 0 1-.67 0l-1.06-1a5.09 5.09 0 0 0-8.09 1.29 5 5 0 0 0 1 5.76l7.76 8a1.059 1.059 0 0 0 .77.32 1.08 1.08 0 0 0 .78-.32.64.64 0 0 0 .14-.66 3.79 3.79 0 0 1-.2-1.38 3.749 3.749 0 0 1 4.92-3.37.49.49 0 0 0 .51-.13l.15-.15a.5.5 0 0 1 .66-.05l.3.23c1.22.92 2.73 2.07 2.73 2.85v4.55a1 1 0 0 0 .15.53l2 3.26a1 1 0 1 0 1.7-1l-.05-.05Z" fill="#B3B8D2"/>
    <path d="M16.09 13.196a2.37 2.37 0 0 0-3.19 0 2.38 2.38 0 0 0-.18 3.39l1.63 1.77a.55.55 0 0 1 .13.34v1c0 1.3 1.52 2.59 2 2.95a.91.91 0 0 0 .54.19.88.88 0 0 0 .54-1.57 3.889 3.889 0 0 1-1.31-1.57v-1.57a.86.86 0 0 0-.23-.59l-2-2.18a.58.58 0 0 1-.17-.45.66.66 0 0 1 .21-.44.64.64 0 0 1 .85 0l2 1.86a.874.874 0 1 0 1.19-1.28l-2.01-1.85Z" fill="#B3B8D2"/>
</svg>
